# xmcd
#
# Track frame offsets:
#	150
#	10487
#	15398
#	29386
#	37937
#	46593
#	63060
#	75051
#	87305
#	100022
#	119667
#	132675
#	145326
#	162751
#	180485
#	193849
#	207833
#	223811
#	244432
#	253603
#	282359
#	289637
#	309604
#	322433
#
# Disc length: 4435 seconds
# Revision: 0
# Processed by: cddbd v1.5.2PL0 Copyright (c) Steve Scherf et al.
# Submitted via: dBpowerAMP V12.0
#
DISCID=59115118
DTITLE=Woody Guthrie - Some Folk [CD1: Worried Man Blues)
DYEAR=2006
DGENRE=Folk
TTITLE0=Lost Train Blues
TTITLE1=Railroad Blues
TTITLE2=Old Joe Clark-Beaumont Rad
TTITLE3=Greenback Dollar
TTITLE4=Boll Weevil Song
TTITLE5=So Long It's Been Good to Know You
TTITLE6=Talking Dust Bowl Blues
TTITLE7=Do-Re-Mi
TTITLE8=Hard Times
TTITLE9=Pretty Boy Floyd
TTITLE10=They Laid Jesus Christ in His Grave
TTITLE11=Jolly Banker
TTITLE12=I Ain't Got No Home
TTITLE13=Dirty Overalls
TTITLE14=Chain Aound My Leg
TTITLE15=Worried Man Blues
TTITLE16=Goin' Down That Road Feeling Bad
TTITLE17=Dust Storm Disaster
TTITLE18=Foggy Mountain Top
TTITLE19=Dust Pneumonia Blues
TTITLE20=California Blues
TTITLE21=Dust Bowl Refugee
TTITLE22=Will Rogers Highway
TTITLE23=Los Angeles New Year's Flood
EXTD=
EXTT0=
EXTT1=
EXTT2=
EXTT3=
EXTT4=
EXTT5=
EXTT6=
EXTT7=
EXTT8=
EXTT9=
EXTT10=
EXTT11=
EXTT12=
EXTT13=
EXTT14=
EXTT15=
EXTT16=
EXTT17=
EXTT18=
EXTT19=
EXTT20=
EXTT21=
EXTT22=
EXTT23=
PLAYORDER=
